<svg width="20" height="20" viewBox="0 0 20 20" fill="none" xmlns="http://www.w3.org/2000/svg">
<path d="M8.83317 11.5L7.0415 9.70829C6.88873 9.55551 6.69428 9.47912 6.45817 9.47912C6.22206 9.47912 6.02761 9.55551 5.87484 9.70829C5.72206 9.86107 5.64567 10.0555 5.64567 10.2916C5.64567 10.5277 5.72206 10.7222 5.87484 10.875L8.24984 13.25C8.4165 13.4166 8.61095 13.5 8.83317 13.5C9.05539 13.5 9.24984 13.4166 9.4165 13.25L14.1248 8.54162C14.2776 8.38885 14.354 8.1944 14.354 7.95829C14.354 7.72218 14.2776 7.52774 14.1248 7.37496C13.9721 7.22218 13.7776 7.14579 13.5415 7.14579C13.3054 7.14579 13.1109 7.22218 12.9582 7.37496L8.83317 11.5ZM9.99984 18.3333C8.84706 18.3333 7.76373 18.1145 6.74984 17.677C5.73595 17.2395 4.854 16.6458 4.104 15.8958C3.354 15.1458 2.76025 14.2638 2.32275 13.25C1.88525 12.2361 1.6665 11.1527 1.6665 9.99996C1.6665 8.84718 1.88525 7.76385 2.32275 6.74996C2.76025 5.73607 3.354 4.85413 4.104 4.10413C4.854 3.35413 5.73595 2.76038 6.74984 2.32288C7.76373 1.88538 8.84706 1.66663 9.99984 1.66663C11.1526 1.66663 12.2359 1.88538 13.2498 2.32288C14.2637 2.76038 15.1457 3.35413 15.8957 4.10413C16.6457 4.85413 17.2394 5.73607 17.6769 6.74996C18.1144 7.76385 18.3332 8.84718 18.3332 9.99996C18.3332 11.1527 18.1144 12.2361 17.6769 13.25C17.2394 14.2638 16.6457 15.1458 15.8957 15.8958C15.1457 16.6458 14.2637 17.2395 13.2498 17.677C12.2359 18.1145 11.1526 18.3333 9.99984 18.3333Z" fill="url(#paint0_linear_102_859)"/>
<defs>
<linearGradient id="paint0_linear_102_859" x1="9.99984" y1="1.66663" x2="9.99984" y2="18.3333" gradientUnits="userSpaceOnUse">
<stop stop-color="#00CC44"/>
<stop offset="1" stop-color="#00FF55"/>
</linearGradient>
</defs>
</svg>
